<svg width="54" height="54" viewBox="0 0 54 54" fill="none" xmlns="http://www.w3.org/2000/svg">
<rect width="54" height="54" rx="2" fill="white"/>
<path fill-rule="evenodd" clip-rule="evenodd" d="M35.0916 11.0288L22.0675 24.9831L34.5798 37.9588C35.029 38.4246 35.1167 39.106 34.8494 39.656C34.8019 39.8604 34.7105 40.058 34.5735 40.2347L23.8982 54H52C53.1046 54 54 53.1046 54 52V2C54 0.895431 53.1046 0 52 0H45.018L44.1149 1.00345L39.6149 6.00345L35.1149 11.0034C35.1072 11.012 35.0995 11.0204 35.0916 11.0288ZM40.982 0H2C0.895431 0 0 0.895429 0 2V52C0 53.1046 0.895429 54 2 54H20.1018L20.8147 53.0808L31.5927 39.183L18.9269 26.0481C18.6453 25.7602 18.502 25.3847 18.5 25.0077C18.4989 24.789 18.5452 24.5698 18.6397 24.3669C18.7062 24.224 18.7963 24.0895 18.91 23.9695L32.8946 8.98595L37.3851 3.99655L40.982 0ZM40 20C41.6569 20 43 18.6569 43 17C43 15.3431 41.6569 14 40 14C38.3431 14 37 15.3431 37 17C37 18.6569 38.3431 20 40 20ZM17 17C17 18.6569 15.6569 20 14 20C12.3431 20 11 18.6569 11 17C11 15.3431 12.3431 14 14 14C15.6569 14 17 15.3431 17 17Z" fill="#1762C5"/>
</svg>
